<svg xmlns="http://www.w3.org/2000/svg" xmlns:xlink="http://www.w3.org/1999/xlink" xmlns:sketch="http://www.bohemiancoding.com/sketch/ns" viewBox="0 0 16 16" version="1.1" x="0px" y="0px"><title>ordered</title><desc>Created with Sketch.</desc><g stroke="none" stroke-width="1" fill="none" fill-rule="evenodd" sketch:type="MSPage"><g sketch:type="MSArtboardGroup" fill="#000000"><rect sketch:type="MSShapeGroup" x="6" y="3" width="10" height="3"></rect><rect sketch:type="MSShapeGroup" x="6" y="10" width="10" height="3"></rect><path d="M1.83557951,2.46218487 L0.687331536,3.51260504 L0,2.68907563 L1.86792453,1.05042017 L3,1.05042017 L3,7 L1.83557951,7 L1.83557951,2.46218487 Z" sketch:type="MSShapeGroup"></path><path d="M0,13.675 L2.22672065,11.6166667 C2.34008154,11.5111106 2.45344073,11.3916673 2.56680162,11.2583333 C2.68016251,11.1249993 2.73684211,10.9694453 2.73684211,10.7916667 C2.73684211,10.5916657 2.66666737,10.4347228 2.52631579,10.3208333 C2.38596421,10.2069439 2.22132348,10.15 2.03238866,10.15 C1.80566688,10.15 1.62888053,10.2222215 1.50202429,10.3666667 C1.37516806,10.5111118 1.30364381,10.6888878 1.28744939,10.9 L0.0728744939,10.8083333 C0.0890689069,10.5027763 0.151146559,10.2375011 0.259109312,10.0125 C0.367072065,9.78749888 0.510120567,9.60000075 0.688259109,9.45 C0.866397652,9.29999925 1.07557235,9.18750038 1.31578947,9.1125 C1.5560066,9.03749963 1.81646283,9 2.09716599,9 C2.3562766,9 2.59918915,9.03749963 2.82591093,9.1125 C3.05263271,9.18750038 3.24966178,9.29861038 3.41700405,9.44583333 C3.58434632,9.59305629 3.71524919,9.77777667 3.8097166,10 C3.90418401,10.2222233 3.951417,10.4805541 3.951417,10.775 C3.951417,10.9638898 3.93252381,11.1347215 3.89473684,11.2875 C3.85694988,11.4402785 3.80431883,11.579166 3.73684211,11.7041667 C3.66936538,11.8291673 3.58974405,11.9444439 3.49797571,12.05 C3.40620737,12.1555561 3.30634332,12.2583328 3.19838057,12.3583333 L1.45748988,13.9 L4,13.9 L4,15 L0,15 L0,13.675 Z" sketch:type="MSShapeGroup"></path></g></g></svg>